<svg width="48" height="48" viewBox="0 0 48 48" fill="none" xmlns="http://www.w3.org/2000/svg">
  <circle cx="21" cy="7" r="2.5" fill="#000000" />
  <circle cx="31" cy="7" r="2.5" fill="#000000" />
  <circle cx="5" cy="24" r="2.5" fill="#000000" />
  <circle cx="43" cy="24" r="2.5" fill="#000000" />
  <circle cx="21" cy="41" r="2.5" fill="#000000" />
  <circle cx="31" cy="41" r="2.5" fill="#000000" />
  <path d="M12 18L4 24L12 30" stroke="#000000" stroke-width="3" stroke-linecap="round" stroke-linejoin="round" />
  <path d="M36 18L44 24L36 30" stroke="#000000" stroke-width="3" stroke-linecap="round" stroke-linejoin="round" />
  <path d="M28 14L20 24H28L20 34" stroke="#000000" stroke-width="3.5" stroke-linecap="round" stroke-linejoin="round" />
  <path d="M18 12L20 8" stroke="#000000" stroke-width="2" stroke-linecap="round" />
  <path d="M28 12L30 8" stroke="#000000" stroke-width="2" stroke-linecap="round" />
  <path d="M10 24H6" stroke="#000000" stroke-width="2" stroke-linecap="round" />
  <path d="M38 24H42" stroke="#000000" stroke-width="2" stroke-linecap="round" />
  <path d="M18 36L20 40" stroke="#000000" stroke-width="2" stroke-linecap="round" />
  <path d="M28 36L30 40" stroke="#000000" stroke-width="2" stroke-linecap="round" />
</svg>
